<svg width="327" height="257" viewBox="0 0 327 257" fill="none" xmlns="http://www.w3.org/2000/svg"><g clip-path="url(#a)"><path fill="url(#b)" d="M0 0h327v295H0z"/><g style="mix-blend-mode:soft-light" opacity=".2"><path opacity=".25" d="M220.056 295c77.232 0 139.84-14.565 139.84-32.533 0-17.967-62.608-32.533-139.84-32.533S80.215 244.5 80.215 262.467c0 17.968 62.609 32.533 139.841 32.533Z" fill="#042030"/><path d="m329.574 105.465-109.518 37.418-109.63-37.418L58 181.634l162.056 55.406L382 181.634l-52.426-76.169Z" fill="#4E2999"/><path opacity=".45" d="m77.105 178.525 134.398 51.409-46.206-45.746s-75.863-18.321-88.192-5.663Zm285.902 0-134.399 51.409 46.207-45.746c-.112 0 75.751-18.321 88.192-5.663Z" fill="#240F4F"/><path d="M220.056 237.04 58 181.634v7.218l162.056 55.405L382 188.852v-7.218L220.056 237.04Z" fill="#994EF8"/><path d="m133.752 270.35 18.771-49.188 60.424 20.653-79.195 28.535Z" fill="#3B1E77"/><path opacity=".45" d="m138.972 256.138 73.975-14.323-60.424-20.653-13.551 34.976Z" fill="#3B1E77"/><path d="m220.056 239.261-86.304 31.089 6.442 6.774 79.862-28.425 79.75 28.425 6.553-6.774-86.303-31.089Z" fill="#994EF8"/><path d="m306.359 270.35-18.882-49.188-60.424 20.653 79.306 28.535Z" fill="#3B1E77"/><path opacity=".45" d="m301.028 256.138-73.975-14.323 60.424-20.653 13.551 34.976Z" fill="#3B1E77"/><path d="M220.055 248.699a5.886 5.886 0 1 0 0-11.77 5.885 5.885 0 1 0 0 11.77Z" fill="#fff" fill-opacity=".5"/><path d="m324.909 105.465-104.853 52.186-104.853-52.186c-4.776 6.329-43.208 70.396-43.208 70.396.444 0 .778.111 1.222.111 96.411 9.66 123.18 39.972 132.066 47.3 8.886 7.439 14.884 6.662 14.884 6.662s5.998.777 14.883-6.662c8.886-7.328 35.655-37.64 132.066-47.3.445 0 .778-.111 1.222-.111-.222 0-38.764-63.956-43.429-70.396Z" fill="#F5B304"/><path d="M368.116 175.861c-.444 0-.778.111-1.222.111-96.411 9.66-123.18 39.972-132.066 47.3-8.886 7.439-14.884 6.662-14.884 6.662s-5.997.777-14.883-6.662c-8.886-7.328-35.655-37.64-132.066-47.3-.444 0-.778-.111-1.222-.111-.777 1.221 0 2.109 0 2.109 97.411 9.438 123.291 39.861 132.177 47.301 8.886 7.328 15.883 6.773 15.883 6.773s6.998.555 15.884-6.773c8.886-7.329 34.766-37.752 132.177-47.301.222 0 .999-.888.222-2.109Z" fill="#994EF8"/><path d="M320.91 99.358c-53.648-12.88-100.966 31.201-100.966 31.201s-47.317-44.08-100.965-31.2c0 0-15.217 23.316-36.21 62.955 0 0 105.631 11.881 137.175 56.184 31.545-44.303 137.176-56.184 137.176-56.184-20.993-39.639-36.21-62.956-36.21-62.956Z" fill="#F5EFFB"/><path d="M357.12 162.314s-105.631 11.881-137.176 56.184C188.511 174.195 82.88 162.314 82.88 162.314s0 3.553-5.886 10.549c0 0 95.856 6.884 130.732 46.634 8.22 9.327 12.218 8.216 12.218 8.216s4.11 1.111 12.219-8.216c34.765-39.75 130.733-46.634 130.733-46.634-5.776-7.107-5.776-10.549-5.776-10.549Z" fill="#DFCBF4"/><path d="M314.912 104.022s-40.097-10.216-94.968 32.31c-54.759-42.415-94.967-32.31-94.967-32.31l-27.102 52.63c82.416 5.662 122.069 47.3 122.069 47.3s39.653-41.638 122.07-47.3l-27.102-52.63Zm-94.856 94.934s-37.099-37.974-115.739-45.413l22.77-47.301s39.431-7.661 92.969 32.533c53.537-40.194 92.968-32.533 92.968-32.533l22.77 47.301c-78.64 7.439-115.738 45.413-115.738 45.413Z" fill="#863ED5"/><path opacity=".2" d="M230.163 175.965c14.81-10.919 61.09-35.08 92.191-31.749m-92.191 1.11c13.144-10.288 47.317-30.444 78.862-28.771m-78.862 44.316c14.255-11.079 51.316-32.787 85.526-30.984m-104.408 46.078c-14.81-10.919-61.09-35.08-92.191-31.749m92.191 1.11c-13.144-10.288-47.317-30.444-78.862-28.771m78.862 44.316c-14.255-11.079-51.316-32.787-85.526-30.984" stroke="#863ED5" stroke-width="3" stroke-linecap="round"/><path d="M220.056 130.559s1.11-3.887 3.221-2.776c0 0-1.333 62.956.888 87.495.556 6.106 5.887 14.434 7.997 17.543h-2.776l-.778 2.554s-8.219-13.879-8.552-19.32c-1.667-24.428-.778-79.612 0-85.496Z" fill="#54DAF5"/></g></g><defs><linearGradient id="b" x1="0" y1="0" x2="293.443" y2="325.274" gradientUnits="userSpaceOnUse"><stop stop-color="#DF98FA"/><stop offset="1" stop-color="#9055FF"/></linearGradient><clipPath id="a"><rect width="327" height="257" rx="20" fill="#fff"/></clipPath></defs></svg>