<svg width="24" height="24" viewBox="0 0 24 24" fill="none" xmlns="http://www.w3.org/2000/svg">
<path d="M12 2C12.5523 2 13 2.44772 13 3V4C13 4.55228 12.5523 5 12 5C11.4477 5 11 4.55228 11 4V3C11 2.44772 11.4477 2 12 2Z" fill="black"/>
<path d="M12 19C12.5523 19 13 19.4477 13 20V21C13 21.5523 12.5523 22 12 22C11.4477 22 11 21.5523 11 21V20C11 19.4477 11.4477 19 12 19Z" fill="black"/>
<path d="M21 13C21.5523 13 22 12.5523 22 12C22 11.4477 21.5523 11 21 11H20C19.4477 11 19 11.4477 19 12C19 12.5523 19.4477 13 20 13H21Z" fill="black"/>
<path d="M5 12C5 12.5523 4.55228 13 4 13H3C2.44772 13 2 12.5523 2 12C2 11.4477 2.44772 11 3 11H4C4.55228 11 5 11.4477 5 12Z" fill="black"/>
<path d="M16.9497 18.364L17.6569 19.0711C18.0474 19.4616 18.6805 19.4616 19.0711 19.0711C19.4616 18.6805 19.4616 18.0474 19.0711 17.6569L18.364 16.9497C17.9734 16.5592 17.3403 16.5592 16.9497 16.9497C16.5592 17.3403 16.5592 17.9734 16.9497 18.364Z" fill="black"/>
<path d="M7.05025 7.05025C6.65973 7.44078 6.02656 7.44078 5.63604 7.05025L4.92893 6.34315C4.53841 5.95262 4.53841 5.31946 4.92893 4.92893C5.31946 4.53841 5.95262 4.53841 6.34315 4.92893L7.05025 5.63604C7.44078 6.02656 7.44078 6.65973 7.05025 7.05025Z" fill="black"/>
<path d="M4.92893 17.6569C4.53841 18.0474 4.53841 18.6805 4.92893 19.0711C5.31946 19.4616 5.95262 19.4616 6.34315 19.0711L7.05025 18.364C7.44078 17.9734 7.44078 17.3403 7.05025 16.9497C6.65973 16.5592 6.02656 16.5592 5.63604 16.9497L4.92893 17.6569Z" fill="black"/>
<path d="M16.9497 7.05025C16.5592 6.65973 16.5592 6.02656 16.9497 5.63604L17.6569 4.92893C18.0474 4.53841 18.6805 4.53841 19.0711 4.92893C19.4616 5.31946 19.4616 5.95262 19.0711 6.34315L18.364 7.05025C17.9734 7.44078 17.3403 7.44078 16.9497 7.05025Z" fill="black"/>
<path fill-rule="evenodd" clip-rule="evenodd" d="M12 6.5C8.96243 6.5 6.5 8.96243 6.5 12C6.5 15.0376 8.96243 17.5 12 17.5C15.0376 17.5 17.5 15.0376 17.5 12C17.5 8.96243 15.0376 6.5 12 6.5ZM8.5 12C8.5 10.067 10.067 8.5 12 8.5C13.933 8.5 15.5 10.067 15.5 12C15.5 13.933 13.933 15.5 12 15.5C10.067 15.5 8.5 13.933 8.5 12Z" fill="black"/>
</svg>
