<svg width="24" height="24" viewBox="0 0 24 24" fill="none" xmlns="http://www.w3.org/2000/svg">
<path d="M11.7689 5.48181C11.9548 5.14371 11.9296 4.72882 11.7041 4.41569C11.4787 4.10257 11.0932 3.94709 10.7136 4.01616C7.39947 4.61917 4.88669 7.51871 4.88669 11.0072C4.88669 12.783 5.53936 14.4089 6.61659 15.6542C6.9779 16.0719 7.60942 16.1176 8.02711 15.7563C8.44481 15.395 8.49051 14.7635 8.1292 14.3458C7.35438 13.4501 6.88669 12.2845 6.88669 11.0072C6.88669 9.17336 7.854 7.5643 9.30633 6.66389C9.26798 6.9433 9.24818 7.22847 9.24818 7.51805C9.24818 10.9609 12.0391 13.7518 15.482 13.7518C15.7715 13.7518 16.0566 13.732 16.336 13.6937C16.1933 13.9238 16.0328 14.1418 15.8563 14.3458C15.495 14.7635 15.5407 15.395 15.9584 15.7563C16.3761 16.1176 17.0076 16.0719 17.369 15.6542C18.1808 14.7158 18.752 13.5608 18.9839 12.2864C19.0529 11.9068 18.8974 11.5213 18.5843 11.2959C18.2712 11.0704 17.8563 11.0452 17.5182 11.2311C16.915 11.5628 16.2221 11.7518 15.482 11.7518C13.1437 11.7518 11.2482 9.8563 11.2482 7.51805C11.2482 6.77795 11.4372 6.08501 11.7689 5.48181Z" fill="black"/>
<path d="M19 20C19.5523 20 20 19.5523 20 19C20 18.4477 19.5523 18 19 18H5C4.44771 18 4 18.4477 4 19C4 19.5523 4.44771 20 5 20L19 20Z" fill="black"/>
</svg>
