<svg width="29" height="28" viewBox="0 0 29 28" fill="none" xmlns="http://www.w3.org/2000/svg">
<g clip-path="url(#clip0_1102_1190)">
<path d="M22.4934 2.21758L19.5161 3.40539L18.9341 2.07812L17.6132 2.22086C16.2877 2.36354 15.1335 2.84118 14.0297 3.71044C12.9258 2.83905 11.7796 2.36184 10.4724 2.2208L9.15101 2.07812L8.5695 3.40539L5.59153 2.21758L0.00534821 15.2173L3.34099 16.486V25.9215L14.0291 20.5918L24.7171 25.9215V16.4947L28.0802 15.2177L22.4934 2.21758ZM4.98535 23.2681V17.1119L11.988 19.7762L4.98535 23.2681ZM13.207 18.4844L2.19118 14.2933L6.47079 4.33415L7.90996 4.90864L4.23396 13.2935L13.207 16.7352L13.207 18.4844ZM13.207 14.9778L7.01441 12.6027C8.07232 12.0635 9.32856 11.9936 10.4751 12.4589L13.207 13.6516L13.207 14.9778ZM13.207 11.8614L11.1066 10.9446C9.8054 10.4133 8.40176 10.3767 7.12797 10.7856L10.1742 3.83835C10.3434 3.88134 11.6483 3.83988 13.207 5.159V11.8614ZM14.8511 5.16004C16.3807 3.87215 17.8246 3.86039 17.9114 3.83841L20.945 10.7587C19.7447 10.3772 18.4396 10.4286 17.1752 10.9446L14.8511 11.8937V5.16004ZM14.8511 13.6659L17.7978 12.4626C18.912 12.0073 20.0747 12.0669 21.0838 12.5961L14.8511 14.9795V13.6659ZM23.0728 23.2681L16.0718 19.7768L23.0728 17.1188V23.2681ZM14.8511 18.4855V16.7356L23.8515 13.2941L20.1749 4.90864L21.6143 4.3342L25.8939 14.2929L14.8511 18.4855Z" fill="#672CBC"/>
</g>
<defs>
<clipPath id="clip0_1102_1190">
<rect width="28.0749" height="28" fill="white" transform="translate(0.00534821)"/>
</clipPath>
</defs>
</svg>
